#N canvas 2473 123 848 865 10;
#X msg 169 631 disconnect;
#X obj 169 690 tgl 15 0 empty empty 1=connected 20 8 0 8 -4034 -257985
-1 1 1;
#X obj 169 655 mrpeach/udpsend;
#X obj 171 556 mrpeach/packOSC;
#X obj 179 128 adc~ 1;
#X floatatom 201 273 5 0 0 0 - - -, f 5;
#X msg 244 421 sendtyped /ch1attack i 1;
#X obj 176 313 pack f f f;
#X text 179 107 loop 1;
#N canvas 2299 534 1379 863 channelAnalyser 0;
#X obj 72 115 env~ 512;
#X obj 107 152 dbtorms;
#X floatatom 108 177 11 0 0 0 - - -, f 11;
#X obj 209 173 f 0, f 4;
#X obj 247 172 + 1;
#X floatatom 261 329 5 0 54000 0 - - -, f 5;
#X msg 220 116 0;
#X obj 156 379 outlet;
#X obj 48 20 inlet~;
#X obj 110 379 outlet;
#X obj 110 331 bng 15 250 50 0 empty empty empty 17 7 0 10 -262144
-1 -1;
#X obj 206 381 outlet;
#X obj 262 382 outlet;
#X text 157 315 pitch;
#X text 100 312 attack;
#X text 202 315 amp (dB);
#X text 262 312 attack count;
#X floatatom 158 332 5 0 54000 0 - - -, f 5;
#X floatatom 207 331 5 0 54000 0 - - -, f 5;
#X obj 391 295 unpack;
#X floatatom 391 345 0 0 0 0 - - -;
#X floatatom 405 322 0 0 0 0 - - -;
#X obj 391 255 route 1 2 3 4;
#X obj 474 295 unpack;
#X floatatom 474 345 0 0 0 0 - - -;
#X floatatom 488 322 0 0 0 0 - - -;
#X obj 558 295 unpack;
#X floatatom 558 345 0 0 0 0 - - -;
#X floatatom 572 322 0 0 0 0 - - -;
#X text 529 258 number of peaks to output (default 0.);
#X obj 54 81 fiddle~ 1024 1 20 3;
#X obj 851 90 fiddle~ 1024 3 20 3;
#X obj 886 146 unpack;
#X floatatom 888 195 0 0 0 0 - - -;
#X floatatom 902 172 0 0 0 0 - - -;
#X obj 959 150 unpack;
#X floatatom 959 200 0 0 0 0 - - -;
#X floatatom 973 177 0 0 0 0 - - -;
#X obj 1037 153 unpack;
#X floatatom 1040 203 0 0 0 0 - - -;
#X floatatom 1051 180 0 0 0 0 - - -;
#X obj 862 262 f;
#X obj 900 264 f;
#X obj 956 264 f;
#X obj 994 266 f;
#X obj 1039 261 f;
#X obj 1077 263 f;
#X obj 862 301 pack f f f f f f;
#X obj 862 399 outlet;
#X obj 771 156 t b b b b b b;
#X obj 930 382 print stuff;
#X connect 0 0 1 0;
#X connect 1 0 2 0;
#X connect 3 0 4 0;
#X connect 3 0 5 0;
#X connect 4 0 3 1;
#X connect 5 0 12 0;
#X connect 6 0 3 1;
#X connect 8 0 0 0;
#X connect 8 0 30 0;
#X connect 8 0 31 0;
#X connect 10 0 3 0;
#X connect 10 0 9 0;
#X connect 17 0 7 0;
#X connect 18 0 11 0;
#X connect 19 0 20 0;
#X connect 19 1 21 0;
#X connect 20 0 17 0;
#X connect 22 0 19 0;
#X connect 22 1 23 0;
#X connect 22 2 26 0;
#X connect 23 0 24 0;
#X connect 23 1 25 0;
#X connect 26 0 27 0;
#X connect 26 1 28 0;
#X connect 30 1 10 0;
#X connect 30 3 18 0;
#X connect 30 4 22 0;
#X connect 31 0 49 0;
#X connect 31 2 32 0;
#X connect 31 3 35 0;
#X connect 31 4 38 0;
#X connect 32 0 33 0;
#X connect 32 1 34 0;
#X connect 33 0 41 1;
#X connect 34 0 42 1;
#X connect 35 0 36 0;
#X connect 35 1 37 0;
#X connect 36 0 43 1;
#X connect 37 0 44 1;
#X connect 38 0 39 0;
#X connect 38 1 40 0;
#X connect 39 0 45 1;
#X connect 40 0 46 1;
#X connect 41 0 47 0;
#X connect 42 0 47 1;
#X connect 43 0 47 2;
#X connect 44 0 47 3;
#X connect 45 0 47 4;
#X connect 46 0 47 5;
#X connect 47 0 48 0;
#X connect 49 0 41 0;
#X connect 49 1 42 0;
#X connect 49 2 43 0;
#X connect 49 3 44 0;
#X connect 49 4 45 0;
#X connect 49 5 46 0;
#X coords 0 -1 1 1 210 60 1 100 300;
#X restore 182 190 pd channelAnalyser;
#X msg 428 628 connect 127.0.0.1 9876;
#X msg 183 342 sendtyped /ch1 ffi \$1 \$2 \$3;
#X msg 401 343 sendtyped /components ffffff \$1 \$2 \$3 \$4 \$5 \$6
;
#X connect 0 0 2 0;
#X connect 2 0 1 0;
#X connect 3 0 2 0;
#X connect 4 0 9 0;
#X connect 5 0 7 1;
#X connect 6 0 3 0;
#X connect 7 0 11 0;
#X connect 9 0 7 0;
#X connect 9 1 5 0;
#X connect 9 2 7 2;
#X connect 9 4 12 0;
#X connect 10 0 2 0;
#X connect 11 0 3 0;
#X connect 12 0 3 0;
